<svg xmlns="http://www.w3.org/2000/svg" width="554.915" height="585.578" viewBox="0 0 554.915 585.578">
  <g id="Gruppe_879" data-name="Gruppe 879" transform="translate(14036.997 10520.207)">
    <path id="Stroke_1" data-name="Stroke 1" d="M302.372,16.31l-11.05,24.465-30.363,9.489L215.377,0,190.539,10.873V29.9l-30.388,9.514L95.257,70.652,91.113,115.48,62.132,135.867l12.431,84.244L9.669,273.094,0,317.922l57.988,17.669L41.413,388.574l9.669,47.546,42.794-8.155,11.05,43.493,19.338,46.187,13.813,29.877,31.744,29.9,45.557,8.155,15.194-35.338,24.863,6.8,26.219-19,5.525-43.493,46.938,6.8,41.438,14.951L393.51,495.9l-30.388-47.546-4.144-21.747,30.388-8.13,57.988,25.8,23.456-6.8,12.431-35.314,23.481-21.747L491.53,350.542l-26.244-25.824-8.262-40.75-23.481-31.261-4.144-55.7,27.625-29.877L414.2,91.039l-16.575-16.31H367.266L339.641,50.264Z" transform="translate(-13993.332 -10520.207)" fill="rgba(52,193,123,0.15)"/>
    <g id="Gruppe_472" data-name="Gruppe 472" transform="translate(-14508 -27155.643)">
      <path id="Pfad_365" data-name="Pfad 365" d="M-8123.032-5200.614a283.1,283.1,0,0,1,30.959,42.575c14.684,24.824,47.732,57.42,62.734,60.523s24.959,6.088,45.186,8.806,26.047-3.308,42.7,14.5,44.395,46.422,44.395,46.422l8.888,2.878" transform="translate(8640.632 21914.186)" fill="none" stroke="#fff" stroke-width="3"/>
      <path id="Pfad_366" data-name="Pfad 366" d="M-8202.523-4693.91s36.956,14.428,53.528,9.407,68.213-29.919,68.213-29.919,43.125-10.814,62.031-12.15,37.16-2.315,51.783-28.567,34.208-61.022,34.208-61.022l11.451-19.047v-27.864l32.458,11.82" transform="translate(8674.072 21752.449)" fill="none" stroke="#fff" stroke-width="3"/>
      <path id="Pfad_367" data-name="Pfad 367" d="M-7530.007-4640.432l-28.661-32.784h-10.125l-10.388-41.583-32.364-40.174s-19.941-30.385-32.454-43.086-31.834-34.627-31.834-34.627v-11.681l2.042-11.909" transform="translate(8452.497 21764.316)" fill="none" stroke="#fff" stroke-width="3"/>
      <path id="Pfad_368" data-name="Pfad 368" d="M-7414.531-5015.676l-12.806,7.6-12.093,15.234h-41.633l-82.276,20.875-22.9,7.393H-7600.7l-44.671,18.731" transform="translate(8439.684 21836.385)" fill="none" stroke="#fff" stroke-width="3"/>
      <path id="Pfad_369" data-name="Pfad 369" d="M-9781.416-4579.911l14.62.861,12.981-12.485,15.889-17.279" transform="translate(10533 21499)" fill="none" stroke="#fff" stroke-width="3"/>
    </g>
    <path id="Pfad_371" data-name="Pfad 371" d="M2858.236-266.908l17.186,51.67-8.566,17.876v58.845l-8.62,6.616-20.97,57.426L2833.8-69.7l-6.4,31.1v12.771" transform="translate(-16516.65 -10248.533)" fill="none" stroke="#fff" stroke-width="3"/>
    <path id="Pfad_372" data-name="Pfad 372" d="M500.971,8373l68.77,10.42,48.949,33.826,68.684,53.53" transform="translate(-14508.75 -18607.764)" fill="none" stroke="#fff" stroke-width="2"/>
    <path id="Pfad_373" data-name="Pfad 373" d="M653.293,782.978l-10.155-8.584V733.756l7.728-8.683" transform="translate(-14422.75 -11001.672)" fill="none" stroke="#fff" stroke-width="3"/>
    <path id="Pfad_374" data-name="Pfad 374" d="M663.1,486.23v26.633l3.727,9.715v15.175l-3.727,24.14L659.653,663.92v68.548" transform="translate(-14422.75 -11001.672)" fill="none" stroke="#fff" stroke-width="3"/>
  </g>
</svg>
