<svg xmlns="http://www.w3.org/2000/svg" width="80.833" height="42.919" viewBox="0 0 80.833 42.919">
  <g id="Komponente_60_4" data-name="Komponente 60 – 4" transform="translate(1.329 1.258)">
    <path id="Pfad_32" data-name="Pfad 32" d="M347.245,745.657a55.6,55.6,0,0,0,6.577-.45,67.235,67.235,0,0,1,19.556,1.6c6.16,1.306,12.1,3.482,18.383,3.831a34.289,34.289,0,0,0,18.02-3.614,14.129,14.129,0,0,0,5.66-4.978,6.118,6.118,0,0,0,.836-4.614,5.653,5.653,0,0,0-5.108-3.8c-2.3-.174-4.555.682-6.86.741a33.344,33.344,0,0,1-8.546-.842,37.015,37.015,0,0,1-15.363-7.779,77.216,77.216,0,0,0-11.908-8.574,1.332,1.332,0,0,0-1.831.593,12.188,12.188,0,0,1-8.244,6.543,13.293,13.293,0,0,1-10.012-1.49c-.178-.1-.592-.313-1.015-.539a1.331,1.331,0,0,0-1.8.532c-2.881,5.319-5.543,12.755-4.315,21.106A11.086,11.086,0,0,0,347.245,745.657Z" transform="translate(-338.227 -717.01)" fill="none" stroke="#6060d6" stroke-linecap="round" stroke-linejoin="round" stroke-width="2.5"/>
    <path id="Pfad_33" data-name="Pfad 33" d="M344.014,738.083l-2.741,6.264a3.052,3.052,0,0,0,.581,3.383,7.973,7.973,0,0,0,3.226,1.972,20.372,20.372,0,0,0,8.764.616c2.93-.307,5.833-.895,8.789-1.1,6.7-.447,13.1,1.594,19.7,2.182a58.5,58.5,0,0,0,19.269-1.412c6.021-1.454,12.962-3.5,16.1-9.815a18.8,18.8,0,0,0,1.465-6.556" transform="translate(-341.002 -711.239)" fill="none" stroke="#6060d6" stroke-linecap="round" stroke-linejoin="round" stroke-width="2.5"/>
    <path id="Pfad_34" data-name="Pfad 34" d="M371.507,724.345a21.115,21.115,0,0,0,4.784-3.895" transform="translate(-339.24 -715.814)" fill="none" stroke="#6060d6" stroke-linecap="round" stroke-linejoin="round" stroke-width="2.5"/>
    <path id="Pfad_35" data-name="Pfad 35" d="M366.947,727.752a27.516,27.516,0,0,0,4.744-3.652" transform="translate(-328.494 -714.545)" fill="none" stroke="#6060d6" stroke-linecap="round" stroke-linejoin="round" stroke-width="2.5"/>
    <path id="Pfad_36" data-name="Pfad 36" d="M366.186,726.95a24.279,24.279,0,0,1-3.639,3.949" transform="translate(-317.06 -713.554)" fill="none" stroke="#6060d6" stroke-linecap="round" stroke-linejoin="round" stroke-width="2.5"/>
  </g>
</svg>
