<svg xmlns="http://www.w3.org/2000/svg" width="81.988" height="51.873" viewBox="0 0 81.988 51.873">
  <g id="Komponente_61_4" data-name="Komponente 61 – 4" transform="translate(1.25 1.583)">
    <path id="Pfad_1" data-name="Pfad 1" d="M368.379,478.69h-8.534A2.844,2.844,0,0,1,357,475.845h0A2.844,2.844,0,0,1,359.845,473h8.534a2.844,2.844,0,0,1,2.845,2.845h0A2.844,2.844,0,0,1,368.379,478.69Z" transform="translate(-335.404 -473)" fill="none" stroke="#34c17b" stroke-linecap="round" stroke-linejoin="round" stroke-width="2.5"/>
    <circle id="Ellipse_1" data-name="Ellipse 1" cx="15.5" cy="15.5" r="15.5" transform="translate(0 18.04)" fill="none" stroke="#34c17b" stroke-linecap="round" stroke-linejoin="round" stroke-width="2.5"/>
    <ellipse id="Ellipse_2" data-name="Ellipse 2" cx="16" cy="15.5" rx="16" ry="15.5" transform="translate(47.488 18.04)" fill="none" stroke="#34c17b" stroke-linecap="round" stroke-linejoin="round" stroke-width="2.5"/>
    <circle id="Ellipse_3" data-name="Ellipse 3" cx="4.5" cy="4.5" r="4.5" transform="translate(35.244 29.605)" fill="none" stroke="#34c17b" stroke-linecap="round" stroke-linejoin="round" stroke-width="2.5"/>
    <path id="Pfad_2" data-name="Pfad 2" d="M373.336,504.759H352L369.069,482H394.53" transform="translate(-337.711 -470.173)" fill="none" stroke="#34c17b" stroke-linecap="round" stroke-linejoin="round" stroke-width="2.5"/>
    <line id="Linie_1" data-name="Linie 1" x1="14.423" y2="19.231" transform="translate(41.567 12.04)" fill="none" stroke="#34c17b" stroke-linecap="round" stroke-linejoin="round" stroke-width="2.5"/>
    <path id="Pfad_3" data-name="Pfad 3" d="M362,477l2.759,7.226,7.1,18.662" transform="translate(-333.564 -471.31)" fill="none" stroke="#34c17b" stroke-linecap="round" stroke-linejoin="round" stroke-width="2.5"/>
    <path id="Pfad_4" data-name="Pfad 4" d="M388.7,473a6.241,6.241,0,0,1-5.917,4.267H379.62l11.92,31.293" transform="translate(-327.401 -473)" fill="none" stroke="#34c17b" stroke-linecap="round" stroke-linejoin="round" stroke-width="2.5"/>
  </g>
</svg>
