<svg xmlns="http://www.w3.org/2000/svg" width="78.288" height="47.5" viewBox="0 0 78.288 47.5">
  <g id="Komponente_63_4" data-name="Komponente 63 – 4" transform="translate(1.25 1.25)">
    <path id="Pfad_22" data-name="Pfad 22" d="M590.147,394.2h-6.533A2.621,2.621,0,0,1,581,391.587V357.613A2.621,2.621,0,0,1,583.613,355h70.561a2.621,2.621,0,0,1,2.613,2.613v33.974a2.621,2.621,0,0,1-2.613,2.613h-6.533" transform="translate(-581 -355)" fill="none" stroke="#14b3d9" stroke-linecap="round" stroke-linejoin="round" stroke-width="2.5"/>
    <line id="Linie_14" data-name="Linie 14" x1="32" transform="translate(22 39)" fill="none" stroke="#14b3d9" stroke-linecap="round" stroke-linejoin="round" stroke-width="2.5"/>
    <ellipse id="Ellipse_9" data-name="Ellipse 9" cx="6.5" cy="6" rx="6.5" ry="6" transform="translate(9 33)" fill="none" stroke="#14b3d9" stroke-linecap="round" stroke-linejoin="round" stroke-width="2.5"/>
    <circle id="Ellipse_10" data-name="Ellipse 10" cx="6" cy="6" r="6" transform="translate(54 33)" fill="none" stroke="#14b3d9" stroke-linecap="round" stroke-linejoin="round" stroke-width="2.5"/>
    <path id="Pfad_23" data-name="Pfad 23" d="M655.561,359H586.307A1.307,1.307,0,0,0,585,360.307v9.147a1.307,1.307,0,0,0,1.307,1.307h69.254" transform="translate(-579.773 -351.173)" fill="none" stroke="#14b3d9" stroke-linecap="round" stroke-linejoin="round" stroke-width="2.5"/>
    <line id="Linie_15" data-name="Linie 15" y2="11" transform="translate(31 8.6)" fill="none" stroke="#14b3d9" stroke-linecap="round" stroke-linejoin="round" stroke-width="2.5"/>
    <line id="Linie_16" data-name="Linie 16" y2="11" transform="translate(18 8.6)" fill="none" stroke="#14b3d9" stroke-linecap="round" stroke-linejoin="round" stroke-width="2.5"/>
    <line id="Linie_17" data-name="Linie 17" y2="11" transform="translate(44 8.6)" fill="none" stroke="#14b3d9" stroke-linecap="round" stroke-linejoin="round" stroke-width="2.5"/>
    <line id="Linie_18" data-name="Linie 18" y2="11" transform="translate(58 8.6)" fill="none" stroke="#14b3d9" stroke-linecap="round" stroke-linejoin="round" stroke-width="2.5"/>
  </g>
</svg>
