<svg xmlns="http://www.w3.org/2000/svg" width="841.362" height="700.596" viewBox="0 0 841.362 700.596">
  <g id="Komponente_59_4" data-name="Komponente 59 – 4" transform="translate(0 2.887)">
    <g id="Gruppe_57" data-name="Gruppe 57" transform="translate(-514.271 -8167.755)">
      <g id="Gruppe_54" data-name="Gruppe 54" transform="translate(184.946 -1034.338)">
        <path id="Pfad_37" data-name="Pfad 37" d="M244.989,3593.909c-.812-26.855,28.73-104.745,71.605-151.646s105.454-7.8,206.521-19.722,294.286-105.162,340.726,33.187,74.557,312.7-13.1,403.215S727.724,4050.52,653.832,4058.96s-228.213-54.718-271.925-64.049,23.357-94.053,0-135.967S260.48,3741.014,265.413,3695.4,245.8,3620.765,244.989,3593.909Z" transform="translate(189.312 5821.317)" fill="#34c17b" opacity="0.064"/>
        <path id="Pfad_38" data-name="Pfad 38" d="M-16.635,4060.434c-5.7-17.181-18.695-25.215,0-30.26s60.094-35.578,96.015-72.79,86.038-25.793,93.315-45.889,39.833-14.964,41.007,0,26.945,47.216-9.57,63.769-155.177,59.815-171.524,85.17-37.219,50.137-49.243,53.906-52.5,9.619-50.173,0S-10.933,4077.615-16.635,4060.434Z" transform="translate(396.23 5754.364)" fill="rgba(58,160,213,0.07)"/>
        <path id="Pfad_39" data-name="Pfad 39" d="M202.789,3348.432s49.3,69.685,77.652,88.746,60.84,65.477,56.9,169.252,12.516,136.392,28.184,155.139,28.262,30.643,20.833,76.534-4.718,74.267,0,101.831-5.672,88.618-20.833,102.521" transform="translate(268.095 5853.661)" fill="none" stroke="#fff" stroke-width="10"/>
        <path id="Pfad_40" data-name="Pfad 40" d="M429.488,4025.954s50.568-27.6,76.334-29.764,75.425,0,75.425,0h31.93s69.7-27.946,91.47-49.628,75.72-111.53,93.028-119.25,19.03,0,19.03,0" transform="translate(227.155 5767.799)" fill="none" stroke="#fff" stroke-width="7"/>
        <path id="Pfad_41" data-name="Pfad 41" d="M577.681,4146.645l48.231-110.634" transform="translate(200.768 5734.407)" fill="none" stroke="#fff" stroke-width="5"/>
        <path id="Pfad_42" data-name="Pfad 42" d="M999.677,3888.647c-46.73-29.475-96.412-60.187-100.714-61.443" transform="translate(142.372 5767.199)" fill="none" stroke="#fff" stroke-width="5"/>
        <circle id="Ellipse_13" data-name="Ellipse 13" cx="13.93" cy="13.93" r="13.93" transform="translate(814.75 9740.452)" fill="none" stroke="#fff" stroke-width="10"/>
        <path id="Pfad_43" data-name="Pfad 43" d="M330.542,3476.161s83.172-8.561,124.08,0,42.121,44.431,98.534,55.787,132.025,42.572,145.018,65.4,34.349,69.921,99.617,70.958,127.226,17.627,127.226,17.627" transform="translate(245.023 5831.281)" fill="none" stroke="#fff" stroke-width="5"/>
        <path id="Pfad_44" data-name="Pfad 44" d="M429.488,3848.405s57.656,28.1,76.563,34.766,63.808,40.014,100.509,36.384,71.065-47.066,86.411-60.157,59.137-83.72,71.84-91.406,23.879-52.485,28.591-60.83" transform="translate(227.155 5788.877)" fill="none" stroke="#fff" stroke-width="5"/>
        <path id="Pfad_45" data-name="Pfad 45" d="M381.338,3904.989s37.184,5.7,44.534,0,36.467-59.605,43.982-64.022,53.462-71.73,57.031-72.858-29.891-12.81-29.891-12.81-23.327-6.585-37.963,0-23.8,10.491-28.393,0-6.46-31.779-64.052-41.769" transform="translate(238.514 5787.728)" fill="none" stroke="#fff" stroke-width="5"/>
        <path id="Pfad_46" data-name="Pfad 46" d="M305.879,3546.042s73.873,3.783,87.628,5.731,29.913-8.79,51.621-5.731,38.965,31.975,55.672,36.64,88.35,18.41,97.114,22.493,24.558,24.319,24.83,38.374-9.256,47.1-11.878,48.3-32.695-11.216-39.2-11.284-51.1-5.658-55.443-4.434" transform="translate(249.477 5818.074)" fill="none" stroke="#fff" stroke-width="5"/>
        <path id="Pfad_47" data-name="Pfad 47" d="M539.159,3741.944s7.5-26.638,10.444-32.583,8.808-20.9,8.969-28.8,6.333-37.071,6.333-37.071L535.775,3621" transform="translate(207.96 5804.437)" fill="none" stroke="#fff" stroke-width="5"/>
        <path id="Pfad_48" data-name="Pfad 48" d="M501.4,3501.133l-31.749,22.5s1.217,10.145,3.085,15.683-2.893,30.436-3.085,33.655,4.24,15.852,0,20.5-29.192,15.388-29.192,15.388l2.9,11.3-14.832,12.6s-7.058,6.6-9.969,11.814-9.6,36.728-11.793,39.676-10.949,27.386-7.383,38.988,12.127,33.921,12.437,37.075-22.067,9.825-22.067,9.825" transform="translate(234.332 5826.084)" fill="none" stroke="#fff" stroke-width="5"/>
        <path id="Pfad_49" data-name="Pfad 49" d="M623.343,3545.489s.746,46.139,0,50.483-7.579,20.033-4.071,22.369,19.415,8.751,19.3,27.94a238.16,238.16,0,0,1-3.666,37.839s-40.9-27.776-42.639-29.507-7.44-4.945-7.44-4.945" transform="translate(199.101 5818.074)" fill="none" stroke="#fff" stroke-width="5"/>
        <path id="Pfad_50" data-name="Pfad 50" d="M633.428,3951.708s.8-32.442,0-42.077-10.278-35.443-11.327-41.749-5.107-37.694-4.872-42.49,7.69-28.968,4.872-56.07,0-46.312,0-46.312v-12.719" transform="translate(193.252 5788.312)" fill="none" stroke="#fff" stroke-width="5"/>
        <path id="Pfad_51" data-name="Pfad 51" d="M637.433,3946.369s18.878-17.548,24.879-17.676,40,0,40,0l13.283,7.814" transform="translate(189.602 5748.882)" fill="none" stroke="#fff" stroke-width="5"/>
        <path id="Pfad_52" data-name="Pfad 52" d="M654,4037s24.868,11.479,51.871,13.365,69.617,8.16,69.617,8.16" transform="translate(186.61 5729.312)" fill="none" stroke="#fff" stroke-width="5"/>
      </g>
    </g>
    <g id="Gruppe_56" data-name="Gruppe 56" transform="translate(-392.83 -8279.296)">
      <path id="Pfad_57" data-name="Pfad 57" d="M636.172,2761.242h43.3" transform="translate(204 5783.891)" fill="none" stroke="#005b79" stroke-width="2"/>
      <path id="Pfad_58" data-name="Pfad 58" d="M644.236,2582.539v-49.993l6.055-4.965,5.655,4.965v21.91" transform="translate(197.832 5962.594)" fill="none" stroke="#005b79" stroke-width="2"/>
      <path id="Pfad_59" data-name="Pfad 59" d="M774.879,2582.134v-50.407l-6.332-4.676-6.211,4.676v21.827" transform="translate(107.51 5963)" fill="none" stroke="#005b79" stroke-width="2"/>
      <path id="Pfad_60" data-name="Pfad 60" d="M677.513,2647.543V2622.85l12.072-10.273,12.38,10.273v24.693" transform="translate(172.382 5897.59)" fill="none" stroke="#005b79" stroke-width="2"/>
    </g>
  </g>
</svg>
