<?xml version="1.0" encoding="UTF-8"?>
<!-- Generator: Adobe Illustrator 12.0.0, SVG Export Plug-In . SVG Version: 6.00 Build 51448)  -->
<!DOCTYPE svg PUBLIC "-//W3C//DTD SVG 1.0//EN" "http://www.w3.org/TR/2001/REC-SVG-20010904/DTD/svg10.dtd">
<svg version="1.0" id="Ebene_1" xmlns="http://www.w3.org/2000/svg" xmlns:xlink="http://www.w3.org/1999/xlink" width="161.285" height="149.287" viewBox="0 0 161.285 149.287" overflow="visible" enable-background="new 0 0 161.285 149.287" xml:space="preserve">
<path fill="#FFFFFF" d="M12.29,149.097l-1.423-11.942H9.183l-2.465,8.644c-0.226,0.781-0.313,1.337-0.313,1.337H6.371  c0,0-0.087-0.556-0.313-1.354l-2.396-8.627H1.979l-1.423,11.942h1.372c0.017-0.174,0.937-8.957,0.937-8.957  c0.069-0.712,0.086-1.389,0.086-1.389h0.035c0,0,0.139,0.677,0.33,1.389c0,0,2.447,8.783,2.5,8.957h1.059  c0.069-0.209,2.534-8.939,2.534-8.939c0.208-0.747,0.33-1.406,0.33-1.406h0.035c0,0,0.018,0.659,0.087,1.406  c0,0,0.903,8.783,0.92,8.939H12.29L12.29,149.097z"/>
<path fill="#FFFFFF" d="M19.961,137.657c0-0.417-0.365-0.746-0.781-0.746c-0.434,0-0.798,0.329-0.798,0.746  c0,0.399,0.364,0.729,0.798,0.729C19.597,138.387,19.961,138.074,19.961,137.657L19.961,137.657z M17.097,137.657  c0-0.417-0.347-0.746-0.781-0.746c-0.434,0-0.781,0.329-0.781,0.746c0,0.399,0.347,0.729,0.781,0.729  C16.75,138.387,17.097,138.074,17.097,137.657L17.097,137.657z M21.055,148.541v-8.801h-1.527v8.089  c-0.434,0.261-0.955,0.382-1.684,0.382c-1.285,0-1.875-0.833-1.875-1.927v-6.544h-1.527v6.492c0,1.874,0.972,3.055,3.315,3.055  C19.267,149.287,20.361,148.94,21.055,148.541L21.055,148.541z"/>
<path fill="#FFFFFF" d="M30.307,149.097v-6.753c0-1.336-0.764-2.777-3.367-2.777c-1.493,0-2.586,0.261-3.419,0.66v8.87h1.527v-8.211  c0.486-0.208,0.903-0.33,1.771-0.33c1.597,0,1.961,0.955,1.961,1.823v6.718H30.307L30.307,149.097z"/>
<path fill="#FFFFFF" d="M37.735,146.492c0-1.076-0.452-2.048-2.274-2.742c-0.903-0.347-1.563-0.781-1.563-1.684  c0-0.799,0.538-1.476,1.563-1.476c0.729,0,1.284,0.313,1.562,0.521l0.399-0.92c-0.486-0.329-1.232-0.643-2.187-0.643  c-1.701,0-2.795,1.181-2.795,2.569c0,0.973,0.365,1.944,2.187,2.621c1.024,0.382,1.545,0.816,1.545,1.788  c0,0.902-0.694,1.614-1.736,1.614c-0.833,0-1.493-0.277-1.822-0.556l-0.417,1.007c0.503,0.382,1.389,0.643,2.395,0.643  C36.502,149.235,37.735,147.916,37.735,146.492L37.735,146.492z"/>
<path fill="#FFFFFF" d="M43.376,149.044v-0.972c-0.156,0.034-0.295,0.069-0.451,0.069c-0.851,0-1.181-0.607-1.181-1.354v-6.093  h1.632v-0.955h-1.632v-2.621l-1.527,0.469v2.152h-1.076v0.955h1.076v6.127c0,1.146,0.625,2.36,2.326,2.36  C42.925,149.183,43.203,149.097,43.376,149.044L43.376,149.044z"/>
<path fill="#FFFFFF" d="M52.055,144.149c0.035-3.125-1.319-4.583-3.558-4.583c-2.205,0-3.767,1.649-3.767,4.826  c0,3.333,1.718,4.877,4.166,4.877c1.267,0,2.256-0.295,2.83-0.642l-0.399-1.007c-0.486,0.277-1.25,0.538-2.309,0.538  c-1.684,0-2.673-1.042-2.847-3.159L52.055,144.149L52.055,144.149z M50.597,143.507l-4.478,0.677  c-0.035-2.534,0.972-3.628,2.326-3.628C49.781,140.556,50.597,141.39,50.597,143.507L50.597,143.507z"/>
<path fill="#FFFFFF" d="M58.183,139.584c-2.222-0.052-3.107,0.191-4.027,0.66v8.853h1.527v-8.176  c0.503-0.33,1.372-0.399,2.135-0.174L58.183,139.584L58.183,139.584z"/>
<path fill="#FFFFFF" d="M72.275,148.61v-6.214H68.7v1.007h2.031v4.478c-0.243,0.14-0.677,0.278-1.493,0.278  c-1.875,0-3.35-1.736-3.35-4.982c0-3.471,1.336-5.068,3.541-5.068c1.059,0,1.753,0.243,2.153,0.486l0.469-0.989  c-0.573-0.365-1.493-0.625-2.794-0.625c-2.726,0-5.017,2.083-5.017,6.058c0,4.218,2.239,6.231,5.017,6.231  C70.748,149.27,71.547,149.026,72.275,148.61L72.275,148.61z"/>
<path fill="#FFFFFF" d="M86.786,149.097v-6.771c0-1.302-0.799-2.76-3.038-2.76c-1.302,0-2.256,0.451-2.898,1.129  c-0.555-0.694-1.423-1.129-2.864-1.129c-1.492,0-2.395,0.243-3.246,0.66v8.87h1.527v-8.229c0.503-0.208,0.92-0.313,1.684-0.313  c1.354,0,2.048,0.695,2.048,1.736v6.805h1.528v-7.69c0.537-0.572,1.146-0.833,1.926-0.833c1.354,0,1.806,0.851,1.806,1.788v6.735  H86.786L86.786,149.097z"/>
<path fill="#FFFFFF" d="M96.299,144.253c0-2.829-1.476-4.634-3.628-4.634c-0.92,0-1.44,0.19-1.909,0.434v-4.583h-1.511v13.141  c0.556,0.364,1.528,0.659,2.795,0.659C94.823,149.27,96.299,147.256,96.299,144.253L96.299,144.253z M94.771,144.306  c0,2.36-0.764,3.975-2.691,3.975c-0.485,0-0.972-0.052-1.318-0.226v-7.169c0.434-0.242,0.833-0.364,1.527-0.364  C94.06,140.521,94.771,142.257,94.771,144.306L94.771,144.306z"/>
<polygon fill="#FFFFFF" points="106.194,149.097 106.194,137.154 104.597,137.154 104.597,142.396 100.102,142.396 100.102,137.154   98.504,137.154 98.504,149.097 100.102,149.097 100.102,143.455 104.597,143.455 104.597,149.097 106.194,149.097 "/>
<path fill="#FFFFFF" d="M13.869,116.732h-2.552l-1.302,6.979c-0.122,0.659-0.174,1.354-0.174,1.354H9.808  c0,0-0.07-0.694-0.208-1.354l-1.545-6.979H6.041l-1.58,6.979c-0.156,0.677-0.226,1.354-0.226,1.354H4.201  c0,0-0.052-0.677-0.174-1.354l-1.25-6.979H0l2.69,11.942h2.5l1.51-6.283c0.156-0.659,0.208-1.267,0.208-1.267h0.035  c0,0,0.069,0.624,0.226,1.267l1.545,6.283h2.482L13.869,116.732L13.869,116.732z"/>
<path fill="#FFFFFF" d="M18.002,128.675v-9.355h-2.708v9.355H18.002L18.002,128.675z M18.089,116.629  c0-0.694-0.642-1.268-1.441-1.268c-0.798,0-1.44,0.573-1.44,1.268c0,0.712,0.642,1.268,1.44,1.268  C17.447,117.896,18.089,117.341,18.089,116.629L18.089,116.629z"/>
<path fill="#FFFFFF" d="M25.119,119.181c-2.517-0.122-3.976,0.156-5.017,0.659v8.835h2.708v-7.637  c0.451-0.209,1.146-0.227,1.805,0.052L25.119,119.181L25.119,119.181z"/>
<path fill="#FFFFFF" d="M31.036,128.554v-1.666c-0.226,0.069-0.347,0.104-0.573,0.104c-0.608,0-0.868-0.382-0.868-1.094v-4.825h1.44  v-1.753h-1.44v-2.69l-2.708,0.694v1.996h-1.024v1.753h1.024v5.034c0,1.44,0.851,2.707,2.812,2.707  C30.324,128.813,30.81,128.657,31.036,128.554L31.036,128.554z"/>
<path fill="#FFFFFF" d="M38.395,125.881c0-1.094-0.417-1.979-2.222-2.743c-0.729-0.313-1.197-0.659-1.197-1.284  c0-0.538,0.364-0.972,1.076-0.972c0.607,0,1.146,0.26,1.423,0.485l0.659-1.544c-0.729-0.452-1.527-0.678-2.69-0.678  c-1.875,0-3.125,1.284-3.125,2.882c0,0.972,0.382,1.927,2.1,2.604c0.868,0.347,1.198,0.694,1.198,1.319  c0,0.59-0.469,1.023-1.163,1.023c-0.677,0-1.319-0.26-1.666-0.538l-0.695,1.719c0.573,0.382,1.598,0.677,2.743,0.677  C37.059,128.831,38.395,127.513,38.395,125.881L38.395,125.881z"/>
<path fill="#FFFFFF" d="M45.875,128.172l-0.573-1.632c-0.278,0.243-0.625,0.382-1.128,0.382c-1.076,0-1.718-1.094-1.718-2.985  c0-1.909,0.555-2.985,1.735-2.985c0.539,0,0.868,0.174,1.111,0.364l0.556-1.492c-0.417-0.348-1.146-0.678-2.292-0.678  c-2.083,0-3.836,1.666-3.836,4.826c0,3.142,1.632,4.877,3.854,4.877C44.765,128.849,45.477,128.554,45.875,128.172L45.875,128.172z"/>
<path fill="#FFFFFF" d="M55.3,128.675v-6.561c0-1.563-0.885-2.917-3.229-2.917c-0.729,0-1.388,0.156-2.014,0.435v-4.582h-2.708  v13.625h2.708v-7.567c0.365-0.191,0.712-0.261,1.146-0.261c1.059,0,1.388,0.59,1.388,1.319v6.509H55.3L55.3,128.675z"/>
<path fill="#FFFFFF" d="M64.672,128.154v-5.589c0-2.534-1.562-3.42-3.68-3.42c-1.649,0-2.864,0.434-3.523,0.712l0.59,1.545  c0.607-0.277,1.527-0.573,2.43-0.573c0.989,0,1.649,0.278,1.649,1.25v0.435c-2.812,0.26-5.225,0.972-5.225,3.384  c0,1.944,1.389,2.951,4.097,2.951C62.624,128.849,63.891,128.571,64.672,128.154L64.672,128.154z M62.138,127.165  c-0.243,0.121-0.59,0.19-0.99,0.19c-1.076,0-1.701-0.468-1.701-1.562c0-1.493,1.059-1.875,2.691-2.031V127.165L62.138,127.165z"/>
<path fill="#FFFFFF" d="M71.287,121.072v-1.753h-1.44v-1.181c0-1.076,0.538-1.389,1.44-1.354v-1.719  c-2.534-0.277-4.148,0.955-4.148,3.299v0.954h-1.024v1.753h1.024v7.603h2.708v-7.603H71.287L71.287,121.072z"/>
<path fill="#FFFFFF" d="M77.312,128.554v-1.666c-0.226,0.069-0.347,0.104-0.573,0.104c-0.608,0-0.868-0.382-0.868-1.094v-4.825  h1.441v-1.753h-1.441v-2.69l-2.708,0.694v1.996h-1.024v1.753h1.024v5.034c0,1.44,0.851,2.707,2.812,2.707  C76.6,128.813,77.086,128.657,77.312,128.554L77.312,128.554z"/>
<path fill="#FFFFFF" d="M84.671,125.881c0-1.094-0.417-1.979-2.223-2.743c-0.729-0.313-1.197-0.659-1.197-1.284  c0-0.538,0.364-0.972,1.076-0.972c0.607,0,1.146,0.26,1.424,0.485l0.659-1.544c-0.729-0.452-1.527-0.678-2.69-0.678  c-1.875,0-3.125,1.284-3.125,2.882c0,0.972,0.382,1.927,2.1,2.604c0.868,0.347,1.198,0.694,1.198,1.319  c0,0.59-0.469,1.023-1.163,1.023c-0.677,0-1.319-0.26-1.667-0.538l-0.694,1.719c0.573,0.382,1.597,0.677,2.743,0.677  C83.334,128.831,84.671,127.513,84.671,125.881L84.671,125.881z"/>
<path fill="#FFFFFF" d="M90.954,121.072v-1.753h-1.441v-1.181c0-1.076,0.539-1.389,1.441-1.354v-1.719  c-2.534-0.277-4.148,0.955-4.148,3.299v0.954h-1.024v1.753h1.024v7.603h2.707v-7.603H90.954L90.954,121.072z"/>
<path fill="#FFFFFF" d="M100.311,123.988c0-2.794-1.423-4.843-4.148-4.843c-2.69,0-4.113,2.049-4.113,4.843  c0,2.795,1.423,4.86,4.131,4.86S100.311,126.783,100.311,123.988L100.311,123.988z M97.62,123.954c0,1.684-0.243,3.055-1.44,3.055  c-1.181,0-1.44-1.371-1.44-3.055c0-1.667,0.242-3.125,1.44-3.125C97.377,120.829,97.62,122.287,97.62,123.954L97.62,123.954z   M99.061,117.185c0-0.591-0.555-1.06-1.197-1.06c-0.659,0-1.197,0.469-1.197,1.06c0,0.59,0.538,1.041,1.197,1.041  C98.506,118.226,99.061,117.774,99.061,117.185L99.061,117.185z M95.676,117.185c0-0.591-0.555-1.06-1.197-1.06  c-0.659,0-1.181,0.469-1.181,1.06c0,0.59,0.521,1.041,1.181,1.041C95.121,118.226,95.676,117.774,95.676,117.185L95.676,117.185z"/>
<path fill="#FFFFFF" d="M107.044,119.181c-2.518-0.122-3.975,0.156-5.017,0.659v8.835h2.708v-7.637  c0.451-0.209,1.146-0.227,1.805,0.052L107.044,119.181L107.044,119.181z"/>
<path fill="#FFFFFF" d="M115.773,128.154V115.05h-2.69v4.321c-0.348-0.086-0.815-0.156-1.371-0.156  c-2.413,0-4.114,1.841-4.114,4.843c0,3.125,1.771,4.791,4.6,4.791C113.812,128.849,114.923,128.605,115.773,128.154L115.773,128.154  z M113.083,126.991c-0.191,0.104-0.469,0.139-0.833,0.139c-1.371,0-1.979-1.163-1.979-3.193c0-1.927,0.573-3.211,2.065-3.211  c0.278,0,0.521,0.034,0.747,0.104V126.991L113.083,126.991z"/>
<path fill="#FFFFFF" d="M125.668,124.145c0.122-3.159-1.25-4.999-3.957-4.999c-2.69,0-4.219,1.893-4.219,4.826  c0,2.985,1.649,4.877,4.514,4.877c1.579,0,2.621-0.313,3.35-0.677l-0.607-1.684c-0.503,0.261-1.336,0.503-2.43,0.503  c-1.371,0-2.065-0.677-2.257-2.048L125.668,124.145L125.668,124.145z M123.151,123.138l-3.264,0.486  c-0.086-1.927,0.607-2.882,1.719-2.882C122.596,120.742,123.151,121.472,123.151,123.138L123.151,123.138z"/>
<path fill="#FFFFFF" d="M132.403,119.181c-2.517-0.122-3.975,0.156-5.017,0.659v8.835h2.708v-7.637  c0.451-0.209,1.146-0.227,1.806,0.052L132.403,119.181L132.403,119.181z"/>
<path fill="#FFFFFF" d="M141.445,128.12v-8.801h-2.708v7.481c-0.295,0.156-0.643,0.226-1.128,0.226c-0.92,0-1.285-0.556-1.285-1.232  v-6.475h-2.707v6.283c0,2.257,1.284,3.246,3.923,3.246C139.293,128.849,140.577,128.554,141.445,128.12L141.445,128.12z"/>
<path fill="#FFFFFF" d="M151.444,128.675v-6.561c0-1.701-1.059-2.969-4.026-2.969c-1.667,0-2.985,0.278-3.923,0.694v8.835h2.708  v-7.654c0.313-0.104,0.607-0.191,1.146-0.191c1.093,0,1.389,0.643,1.389,1.302v6.544H151.444L151.444,128.675z"/>
<path fill="#FFFFFF" d="M161.285,128.744v-8.904c-0.659-0.399-1.875-0.694-3.315-0.694c-3.211,0-4.809,1.962-4.809,5.086  c0,2.795,1.614,4.513,3.854,4.513c0.781,0,1.319-0.121,1.632-0.294v0.521c0,1.075-0.521,1.753-1.943,1.753  c-0.886,0-1.736-0.243-2.31-0.556l-0.693,1.753c0.746,0.417,2.048,0.694,3.488,0.694C159.584,132.615,161.285,131.4,161.285,128.744  L161.285,128.744z M158.646,126.974c-0.226,0.14-0.538,0.226-0.902,0.226c-1.354,0-1.909-1.006-1.909-3.124  c0-2.239,0.572-3.367,1.961-3.367c0.365,0,0.643,0.052,0.851,0.156V126.974L158.646,126.974z"/>
<path fill="#798288" d="M5.99,61.562l25.068-12.544L5.79,36.34c-2.531-1.173-4.303-3.726-4.303-6.699V3.7  c0-2.042,1.655-3.7,3.696-3.7C5.895,0,6.576,0.227,7.14,0.576l83.062,48.442l-88.714,51.75V68.379  C1.487,65.301,3.314,62.674,5.99,61.562L5.99,61.562z"/>
<path fill="#80C341" d="M42.955,61.562l25.068-12.544L42.754,36.34c-2.531-1.173-4.303-3.726-4.303-6.699V3.7  c0-2.042,1.655-3.7,3.696-3.7c0.712,0,1.393,0.227,1.957,0.576l83.061,48.442l-88.714,51.75V68.379  C38.451,65.301,40.279,62.674,42.955,61.562L42.955,61.562z"/>
</svg>