<svg xmlns="http://www.w3.org/2000/svg" width="63.459" height="40.441" viewBox="0 0 63.459 40.441">
    <g data-name="Komponente 54 – 2" transform="translate(1.25 1.582)">
        <path data-name="Pfad 1" d="M365.727 477.363h-6.545a2.181 2.181 0 0 1-2.182-2.181h0a2.181 2.181 0 0 1 2.182-2.182h6.545a2.181 2.181 0 0 1 2.182 2.182h0a2.181 2.181 0 0 1-2.182 2.181z" transform="translate(-340.438 -473)" style="fill:none;stroke:#34c17b

;stroke-linecap:round;stroke-linejoin:round;stroke-width:2.5px"/>
        <circle data-name="Ellipse 1" cx="11.887" cy="11.887" r="11.887" transform="translate(0 13.835)" style="fill:none;stroke:#34c17b

;stroke-linecap:round;stroke-linejoin:round;stroke-width:2.5px"/>
        <ellipse data-name="Ellipse 2" cx="12.27" cy="11.887" rx="12.27" ry="11.887" transform="translate(36.418 13.835)" style="fill:none;stroke:#34c17b

;stroke-linecap:round;stroke-linejoin:round;stroke-width:2.5px"/>
        <circle data-name="Ellipse 3" cx="3.451" cy="3.451" r="3.451" transform="translate(27.029 22.704)" style="fill:none;stroke:#34c17b

;stroke-linecap:round;stroke-linejoin:round;stroke-width:2.5px"/>
        <path data-name="Pfad 2" d="M368.363 499.454H352L365.09 482h19.526" transform="translate(-341.042 -472.93)" style="fill:none;stroke:#34c17b

;stroke-linecap:round;stroke-linejoin:round;stroke-width:2.5px"/>
        <path data-name="Linie 1" transform="translate(31.877 9.234)" style="fill:none;stroke:#34c17b

;stroke-linecap:round;stroke-linejoin:round;stroke-width:2.5px" d="M11.061 0 0 14.748"/>
        <path data-name="Pfad 3" d="m362 477 2.116 5.542 5.443 14.312" transform="translate(-340.192 -472.637)" style="fill:none;stroke:#34c17b

;stroke-linecap:round;stroke-linejoin:round;stroke-width:2.5px"/>
        <path data-name="Pfad 4" d="M386.58 473a4.786 4.786 0 0 1-4.538 3.273h-2.422l9.141 24" transform="translate(-339.573 -473)" style="fill:none;stroke:#34c17b

;stroke-linecap:round;stroke-linejoin:round;stroke-width:2.5px"/>
    </g>
</svg>
